<svg id="Capa_1" data-name="Capa 1" xmlns="http://www.w3.org/2000/svg" viewBox="0 0 612 240.02"><defs><style>.cls-1{opacity:0.4;}.cls-2,.cls-3,.cls-4,.cls-5{fill:none;stroke-miterlimit:10;stroke-width:0.3px;}.cls-2{stroke:#acacac;}.cls-3{stroke:#b9b9b9;}.cls-4{stroke:#919292;}.cls-5{stroke:#454545;}.cls-6{fill:#313131;}.cls-7{fill:#525252;}.cls-8{fill:#878889;}.cls-9{fill:#c9c9c9;}</style></defs><g class="cls-1"><polyline class="cls-2" points="186.83 120.35 214.57 70.01 286.57 104.01 323.57 38.01 388.57 128.01 507.57 28.01 479.98 90.68 388.57 128.01 321.99 153.01 373.32 217.34"/><polyline class="cls-2" points="-11.02 134.68 155.32 251.34 321.99 153.01 286.57 104.01"/><polygon class="cls-2" points="186.83 120.35 136.83 104.01 112.83 161.34 226.83 169.35 186.83 120.35"/><polyline class="cls-3" points="321.99 153.01 226.83 169.35 155.32 251.34 112.83 161.34 41.32 98.01 122.65 23.35 136.83 104.01"/><polygon class="cls-4" points="511.98 145.34 559.32 90.68 479.98 90.68 479.98 140.01 511.98 145.34"/><polyline class="cls-5" points="479.98 140.01 457.83 169.6 373.32 217.34 388.57 128.01 454.49 167.6 617.32 266.01"/><polyline class="cls-3" points="628.65 52.01 559.32 90.68 507.57 28.01 323.57 38.01 214.57 70.01 122.65 23.35 -11.02 44.01"/><polyline class="cls-5" points="628.65 201.34 511.98 145.34 525.44 210.48"/><line class="cls-5" x1="41.32" y1="98.01" x2="-18.69" y2="112.67"/><path class="cls-6" d="M524,210.51a1.39,1.39,0,1,1,1.39,1.39A1.39,1.39,0,0,1,524,210.51Z"/><path class="cls-6" d="M478.6,140a1.39,1.39,0,1,1,1.38,1.38A1.38,1.38,0,0,1,478.6,140Z"/><path class="cls-7" d="M478.6,90.68A1.39,1.39,0,1,1,480,92.06,1.38,1.38,0,0,1,478.6,90.68Z"/><path class="cls-7" d="M557.93,90.68a1.39,1.39,0,1,1,1.39,1.38A1.39,1.39,0,0,1,557.93,90.68Z"/><path class="cls-6" d="M510.6,145.34a1.39,1.39,0,1,1,1.38,1.39A1.38,1.38,0,0,1,510.6,145.34Z"/><circle class="cls-6" cx="457.83" cy="169.6" r="1.39"/><path class="cls-6" d="M387.18,128a1.39,1.39,0,1,1,1.39,1.38A1.39,1.39,0,0,1,387.18,128Z"/><circle class="cls-6" cx="321.99" cy="153.14" r="1.39"/><path class="cls-6" d="M225.44,169.35a1.39,1.39,0,1,1,1.39,1.38A1.39,1.39,0,0,1,225.44,169.35Z"/><path class="cls-6" d="M111.57,161.57A1.39,1.39,0,1,1,113,163,1.39,1.39,0,0,1,111.57,161.57Z"/><circle class="cls-8" cx="41.32" cy="98.01" r="1.39"/><circle class="cls-9" cx="215.09" cy="69.57" r="1.39"/><path class="cls-7" d="M185.44,120.35a1.39,1.39,0,1,1,1.39,1.38A1.39,1.39,0,0,1,185.44,120.35Z"/><path class="cls-8" d="M135.44,104a1.39,1.39,0,1,1,1.39,1.39A1.39,1.39,0,0,1,135.44,104Z"/><path class="cls-7" d="M285.18,104a1.39,1.39,0,1,1,1.39,1.39A1.39,1.39,0,0,1,285.18,104Z"/><circle class="cls-9" cx="323.57" cy="38.01" r="1.39"/><path class="cls-6" d="M371.73,216.34a1.39,1.39,0,1,1,1.39,1.39A1.38,1.38,0,0,1,371.73,216.34Z"/><path class="cls-9" d="M121.27,23.35a1.39,1.39,0,1,1,1.38,1.38A1.38,1.38,0,0,1,121.27,23.35Z"/></g></svg>