<svg id="Capa_1" data-name="Capa 1" xmlns="http://www.w3.org/2000/svg" viewBox="0 0 612 240.02"><defs><style>.cls-1{opacity:0.4;}.cls-2{fill:#7aba4d;}.cls-3,.cls-4,.cls-5,.cls-6{fill:none;stroke-miterlimit:10;stroke-width:0.3px;}.cls-3{stroke:#acacac;}.cls-4{stroke:#b9b9b9;}.cls-5{stroke:#919292;}.cls-6{stroke:#454545;}.cls-7{fill:#313131;}.cls-8{fill:#525252;}.cls-9{fill:#878889;}.cls-10{fill:#c9c9c9;}</style></defs><g class="cls-1"><path class="cls-2" d="M490,123.92a1.39,1.39,0,1,1-1.39-1.39A1.38,1.38,0,0,1,490,123.92Z"/><polyline class="cls-3" points="424.16 156.29 396.41 206.63 324.41 172.63 287.41 238.63 222.41 148.63 103.41 248.63 131 185.96 222.41 148.63 289 123.63 237.66 59.29"/><polyline class="cls-3" points="622 141.96 455.66 25.29 289 123.63 324.41 172.63"/><polygon class="cls-3" points="424.16 156.29 474.16 172.63 498.16 115.3 384.16 107.29 424.16 156.29"/><polyline class="cls-4" points="289 123.63 384.16 107.29 455.66 25.29 498.16 115.3 569.66 178.63 488.33 253.29 474.16 172.63"/><polygon class="cls-5" points="99 131.29 51.67 185.96 131 185.96 131 136.63 99 131.29"/><polyline class="cls-6" points="131 136.63 153.16 107.03 237.66 59.29 222.41 148.63 156.49 109.04 -6.33 10.63"/><polyline class="cls-4" points="-17.67 224.63 51.67 185.96 103.41 248.63 287.41 238.63 396.41 206.63 488.33 253.29 622 232.63"/><polyline class="cls-6" points="-17.67 75.3 99 131.29 85.54 66.16"/><line class="cls-6" x1="569.67" y1="178.63" x2="629.67" y2="163.96"/><circle class="cls-7" cx="85.58" cy="66.13" r="1.39"/><circle class="cls-7" cx="131" cy="136.63" r="1.39"/><circle class="cls-8" cx="131" cy="185.96" r="1.39"/><circle class="cls-8" cx="51.67" cy="185.96" r="1.39"/><circle class="cls-7" cx="99" cy="131.29" r="1.39"/><path class="cls-7" d="M154.54,107a1.39,1.39,0,1,1-1.39-1.38A1.39,1.39,0,0,1,154.54,107Z"/><circle class="cls-7" cx="222.41" cy="148.63" r="1.39"/><circle class="cls-7" cx="289" cy="123.49" r="1.39"/><path class="cls-7" d="M385.54,107.29a1.39,1.39,0,1,1-1.38-1.39A1.38,1.38,0,0,1,385.54,107.29Z"/><path class="cls-7" d="M499.41,115.07a1.39,1.39,0,1,1-1.38-1.39A1.38,1.38,0,0,1,499.41,115.07Z"/><path class="cls-9" d="M571.05,178.63a1.39,1.39,0,1,1-1.38-1.39A1.38,1.38,0,0,1,571.05,178.63Z"/><path class="cls-10" d="M397.28,207.07a1.39,1.39,0,1,1-1.39-1.39A1.38,1.38,0,0,1,397.28,207.07Z"/><path class="cls-8" d="M425.54,156.29a1.39,1.39,0,1,1-1.38-1.39A1.38,1.38,0,0,1,425.54,156.29Z"/><path class="cls-9" d="M475.54,172.63a1.39,1.39,0,1,1-1.38-1.39A1.39,1.39,0,0,1,475.54,172.63Z"/><path class="cls-8" d="M325.8,172.63a1.39,1.39,0,1,1-1.39-1.39A1.39,1.39,0,0,1,325.8,172.63Z"/><path class="cls-10" d="M288.8,238.63a1.39,1.39,0,1,1-1.39-1.39A1.39,1.39,0,0,1,288.8,238.63Z"/><circle class="cls-7" cx="237.86" cy="60.29" r="1.39"/></g></svg>